<?xml version="1.0" encoding="utf-8" ?>
<svg baseProfile="full" height="900px" version="1.1" width="1200px" xmlns="http://www.w3.org/2000/svg" xmlns:ev="http://www.w3.org/2001/xml-events" xmlns:xlink="http://www.w3.org/1999/xlink"><defs /><rect fill="#0a0a0f" height="900px" width="1200px" x="0" y="0" /><text fill="#c9a84c" font-family="Arial, sans-serif" font-size="24px" font-weight="bold" text-anchor="middle" x="600" y="30">Lock Type Decision Tree</text><rect fill="#2a5a5a" height="60" rx="10" ry="10" stroke="#c9a84c" stroke-width="2" width="240" x="480" y="70" /><text dominant-baseline="middle" fill="#ffffff" font-family="Arial, sans-serif" font-size="10px" font-weight="normal" text-anchor="middle" x="600.0" y="100.0">Score ≥ 3.0
(Site qualifies)</text><rect fill="#2a5a5a" height="60" rx="10" ry="10" stroke="#c9a84c" stroke-width="2" width="240" x="480" y="70" /><text dominant-baseline="middle" fill="#ffffff" font-family="Arial, sans-serif" font-size="10px" font-weight="normal" text-anchor="middle" x="600.0" y="100.0">Score ≥ 3.0
(Site qualifies)</text><rect fill="none" height="70" rx="10" ry="10" stroke="#c9a84c" stroke-width="2" width="140" x="300" y="190" /><text dominant-baseline="middle" fill="#ffffff" font-family="Arial, sans-serif" font-size="9px" font-weight="normal" text-anchor="middle" x="370.0" y="225.0">Crosses
national
border?</text><rect fill="none" height="70" rx="10" ry="10" stroke="#c9a84c" stroke-width="2" width="140" x="560" y="190" /><text dominant-baseline="middle" fill="#ffffff" font-family="Arial, sans-serif" font-size="9px" font-weight="normal" text-anchor="middle" x="630.0" y="225.0">Major logistics
corridor?</text><line stroke="#d0d0d0" stroke-width="2" x1="600" x2="370" y1="130" y2="190" /><polygon fill="#d0d0d0" points="370,190 377.1519537524984,177.79960830456153 382.20039169543844,197.15195375249843" stroke="#d0d0d0" /><text fill="#d0d0d0" font-family="Arial, sans-serif" font-size="11px" text-anchor="middle" x="485.0" y="145.0">YES</text><line stroke="#d0d0d0" stroke-width="2" x1="600" x2="630" y1="130" y2="190" /><polygon fill="#d0d0d0" points="630,190 616.5835921350013,185.52786404500043 634.4721359549997,176.58359213500128" stroke="#d0d0d0" /><text fill="#d0d0d0" font-family="Arial, sans-serif" font-size="11px" text-anchor="middle" x="615.0" y="145.0">NO</text><rect fill="#d85555" height="60" rx="10" ry="10" stroke="#d85555" stroke-width="2" width="120" x="230" y="310" /><text dominant-baseline="middle" fill="#ffffff" font-family="Arial, sans-serif" font-size="10px" font-weight="normal" text-anchor="middle" x="290.0" y="340.0">BORDER
LOCK</text><rect fill="#1a3a2a" height="60" rx="10" ry="10" stroke="#1a3a2a" stroke-width="2" width="120" x="450" y="310" /><text dominant-baseline="middle" fill="#ffffff" font-family="Arial, sans-serif" font-size="9px" font-weight="normal" text-anchor="middle" x="510.0" y="340.0">Q2a:
Civic space?</text><rect fill="#2a5a5a" height="60" rx="10" ry="10" stroke="#2a5a5a" stroke-width="2" width="120" x="650" y="310" /><text dominant-baseline="middle" fill="#ffffff" font-family="Arial, sans-serif" font-size="9px" font-weight="normal" text-anchor="middle" x="710.0" y="340.0">Q3:
Altitude?</text><rect fill="#2a5a5a" height="60" rx="8" ry="8" stroke="#2a5a5a" stroke-width="2" width="110" x="100" y="430" /><text dominant-baseline="middle" fill="#ffffff" font-family="Arial, sans-serif" font-size="8px" font-weight="normal" text-anchor="middle" x="155.0" y="460.0">LOGISTICS
ENGINE</text><rect fill="#5a4a3a" height="60" rx="8" ry="8" stroke="#5a4a3a" stroke-width="2" width="110" x="250" y="430" /><text dominant-baseline="middle" fill="#ffffff" font-family="Arial, sans-serif" font-size="8px" font-weight="normal" text-anchor="middle" x="305.0" y="460.0">CARGO
LOCK</text><rect fill="#1a3a2a" height="60" rx="8" ry="8" stroke="#1a3a2a" stroke-width="2" width="110" x="400" y="430" /><text dominant-baseline="middle" fill="#ffffff" font-family="Arial, sans-serif" font-size="8px" font-weight="normal" text-anchor="middle" x="455.0" y="460.0">GRADIENT
DISPATCHER</text><rect fill="#4a2c6e" height="60" rx="8" ry="8" stroke="#4a2c6e" stroke-width="2" width="110" x="550" y="430" /><text dominant-baseline="middle" fill="#ffffff" font-family="Arial, sans-serif" font-size="8px" font-weight="normal" text-anchor="middle" x="605.0" y="460.0">ALTITUDE
LOCK</text><rect fill="#2a5a5a" height="60" rx="8" ry="8" stroke="#2a5a5a" stroke-width="2" width="110" x="700" y="430" /><text dominant-baseline="middle" fill="#ffffff" font-family="Arial, sans-serif" font-size="8px" font-weight="normal" text-anchor="middle" x="755.0" y="460.0">BRIDGE
LOCK</text><rect fill="#2a2a3a" height="60" rx="8" ry="8" stroke="#2a2a3a" stroke-width="2" width="110" x="850" y="430" /><text dominant-baseline="middle" fill="#ffffff" font-family="Arial, sans-serif" font-size="8px" font-weight="normal" text-anchor="middle" x="905.0" y="460.0">VISIBILITY
LOCK</text><rect fill="#3a2a1a" height="60" rx="8" ry="8" stroke="#3a2a1a" stroke-width="2" width="120" x="200" y="550" /><text dominant-baseline="middle" fill="#ffffff" font-family="Arial, sans-serif" font-size="10px" font-weight="normal" text-anchor="middle" x="260.0" y="580.0">GAP
RELAY</text><rect fill="#5a4a3a" height="60" rx="8" ry="8" stroke="#5a4a3a" stroke-width="2" width="120" x="450" y="550" /><text dominant-baseline="middle" fill="#ffffff" font-family="Arial, sans-serif" font-size="9px" font-weight="normal" text-anchor="middle" x="510.0" y="580.0">TEMPORAL
LOCK
(default)</text><text fill="#d0d0d0" font-family="Arial, sans-serif" font-size="10px" font-style="italic" text-anchor="middle" x="600" y="750">9 lock types assigned deterministically based on site characteristics</text></svg>