<?xml version="1.0" encoding="utf-8" ?>
<svg baseProfile="full" height="900px" version="1.1" width="1200px" xmlns="http://www.w3.org/2000/svg" xmlns:ev="http://www.w3.org/2001/xml-events" xmlns:xlink="http://www.w3.org/1999/xlink"><defs /><rect fill="#0a0a0f" height="900px" width="1200px" x="0" y="0" /><text fill="#c9a84c" font-family="Arial, sans-serif" font-size="22px" font-weight="bold" text-anchor="middle" x="600" y="30">Scoring Funnel: Data → 5 Numbers → Deterministic</text><rect fill="#2a2a3a" height="80" rx="8" ry="8" stroke="#d0d0d0" stroke-width="1" width="110" x="85.0" y="80" /><text dominant-baseline="middle" fill="#ffffff" font-family="Arial, sans-serif" font-size="7px" font-weight="normal" text-anchor="middle" x="140.0" y="120.0">corridor_segments
(49 × 17)</text><rect fill="#2a2a3a" height="80" rx="8" ry="8" stroke="#d0d0d0" stroke-width="1" width="110" x="200.0" y="80" /><text dominant-baseline="middle" fill="#ffffff" font-family="Arial, sans-serif" font-size="7px" font-weight="normal" text-anchor="middle" x="255.0" y="120.0">break_points
(49 × 25)</text><rect fill="#2a2a3a" height="80" rx="8" ry="8" stroke="#d0d0d0" stroke-width="1" width="110" x="315.0" y="80" /><text dominant-baseline="middle" fill="#ffffff" font-family="Arial, sans-serif" font-size="7px" font-weight="normal" text-anchor="middle" x="370.0" y="120.0">temporal_freq
(49 × 28)</text><rect fill="#2a2a3a" height="80" rx="8" ry="8" stroke="#d0d0d0" stroke-width="1" width="110" x="430.0" y="80" /><text dominant-baseline="middle" fill="#ffffff" font-family="Arial, sans-serif" font-size="7px" font-weight="normal" text-anchor="middle" x="485.0" y="120.0">modal_diversity
(49 × 17)</text><rect fill="#2a2a3a" height="80" rx="8" ry="8" stroke="#d0d0d0" stroke-width="1" width="110" x="545.0" y="80" /><text dominant-baseline="middle" fill="#ffffff" font-family="Arial, sans-serif" font-size="7px" font-weight="normal" text-anchor="middle" x="600.0" y="120.0">ridership_sbb
(174 × 13)</text><rect fill="#2a2a3a" height="80" rx="8" ry="8" stroke="#d0d0d0" stroke-width="1" width="110" x="660.0" y="80" /><text dominant-baseline="middle" fill="#ffffff" font-family="Arial, sans-serif" font-size="7px" font-weight="normal" text-anchor="middle" x="715.0" y="120.0">shared_mobility
(2,062 × 9)</text><rect fill="#2a2a3a" height="80" rx="8" ry="8" stroke="#d0d0d0" stroke-width="1" width="110" x="775.0" y="80" /><text dominant-baseline="middle" fill="#ffffff" font-family="Arial, sans-serif" font-size="7px" font-weight="normal" text-anchor="middle" x="830.0" y="120.0">Google Places
API</text><rect fill="#2a2a3a" height="80" rx="8" ry="8" stroke="#d0d0d0" stroke-width="1" width="110" x="890.0" y="80" /><text dominant-baseline="middle" fill="#ffffff" font-family="Arial, sans-serif" font-size="7px" font-weight="normal" text-anchor="middle" x="945.0" y="120.0">transport.
opendata.ch</text><rect fill="#2a2a3a" height="80" rx="8" ry="8" stroke="#d0d0d0" stroke-width="1" width="110" x="1005.0" y="80" /><text dominant-baseline="middle" fill="#ffffff" font-family="Arial, sans-serif" font-size="7px" font-weight="normal" text-anchor="middle" x="1060.0" y="120.0">AI chain
analysis</text><polygon fill="none" points="100,200 1100,200 900,500 300,500" stroke="#c9a84c" stroke-dasharray="5,5" stroke-width="2" /><rect fill="#2a5a5a" height="90" rx="8" ry="8" stroke="#c9a84c" stroke-width="2" width="140" x="210.0" y="350" /><text dominant-baseline="middle" fill="#ffffff" font-family="Arial, sans-serif" font-size="8px" font-weight="normal" text-anchor="middle" x="280.0" y="395.0">①
Affected
Population
25%</text><rect fill="#1a3a2a" height="90" rx="8" ry="8" stroke="#c9a84c" stroke-width="2" width="140" x="370.0" y="350" /><text dominant-baseline="middle" fill="#ffffff" font-family="Arial, sans-serif" font-size="8px" font-weight="normal" text-anchor="middle" x="440.0" y="395.0">②
Chain
Criticality
25%</text><rect fill="#4a2c6e" height="90" rx="8" ry="8" stroke="#c9a84c" stroke-width="2" width="140" x="530.0" y="350" /><text dominant-baseline="middle" fill="#ffffff" font-family="Arial, sans-serif" font-size="8px" font-weight="normal" text-anchor="middle" x="600.0" y="395.0">③
Modal
Collapse
20%</text><rect fill="#2a2a3a" height="90" rx="8" ry="8" stroke="#c9a84c" stroke-width="2" width="140" x="690.0" y="350" /><text dominant-baseline="middle" fill="#ffffff" font-family="Arial, sans-serif" font-size="8px" font-weight="normal" text-anchor="middle" x="760.0" y="395.0">④
Gap
Distance
15%</text><rect fill="#3a2a1a" height="90" rx="8" ry="8" stroke="#c9a84c" stroke-width="2" width="140" x="850.0" y="350" /><text dominant-baseline="middle" fill="#ffffff" font-family="Arial, sans-serif" font-size="8px" font-weight="normal" text-anchor="middle" x="920.0" y="395.0">⑤
Infra
Readiness
15%</text><rect fill="#1a3a2a" height="70" rx="8" ry="8" stroke="#c9a84c" stroke-width="1" width="100" x="330.0" y="520" /><text dominant-baseline="middle" fill="#ffffff" font-family="Arial, sans-serif" font-size="8px" font-weight="normal" text-anchor="middle" x="380.0" y="555.0">Site +
Lock Type</text><line stroke="#d0d0d0" stroke-width="2" x1="430.0" x2="440.0" y1="555" y2="555" /><polygon fill="#d0d0d0" points="440.0,555 430.0,565.0 430.0,545.0" stroke="#d0d0d0" /><rect fill="#2a5a5a" height="70" rx="8" ry="8" stroke="#c9a84c" stroke-width="1" width="100" x="440.0" y="520" /><text dominant-baseline="middle" fill="#ffffff" font-family="Arial, sans-serif" font-size="8px" font-weight="normal" text-anchor="middle" x="490.0" y="555.0">Chamber
Config</text><line stroke="#d0d0d0" stroke-width="2" x1="540.0" x2="550.0" y1="555" y2="555" /><polygon fill="#d0d0d0" points="550.0,555 540.0,565.0 540.0,545.0" stroke="#d0d0d0" /><rect fill="#5a4a3a" height="70" rx="8" ry="8" stroke="#c9a84c" stroke-width="1" width="100" x="550.0" y="520" /><text dominant-baseline="middle" fill="#ffffff" font-family="Arial, sans-serif" font-size="8px" font-weight="normal" text-anchor="middle" x="600.0" y="555.0">Spec
Sheet</text><line stroke="#d0d0d0" stroke-width="2" x1="650.0" x2="660.0" y1="555" y2="555" /><polygon fill="#d0d0d0" points="660.0,555 650.0,565.0 650.0,545.0" stroke="#d0d0d0" /><rect fill="#3a2a1a" height="70" rx="8" ry="8" stroke="#c9a84c" stroke-width="1" width="100" x="660.0" y="520" /><text dominant-baseline="middle" fill="#ffffff" font-family="Arial, sans-serif" font-size="8px" font-weight="normal" text-anchor="middle" x="710.0" y="555.0">3D
Preview</text><line stroke="#d0d0d0" stroke-width="2" x1="760.0" x2="770.0" y1="555" y2="555" /><polygon fill="#d0d0d0" points="770.0,555 760.0,565.0 760.0,545.0" stroke="#d0d0d0" /><rect fill="#2a2a3a" height="70" rx="8" ry="8" stroke="#c9a84c" stroke-width="1" width="100" x="770.0" y="520" /><text dominant-baseline="middle" fill="#ffffff" font-family="Arial, sans-serif" font-size="8px" font-weight="normal" text-anchor="middle" x="820.0" y="555.0">Rhino
Script</text><text fill="#c9a84c" font-family="Arial, sans-serif" font-size="11px" font-weight="bold" text-anchor="middle" x="600" y="160">MANY DATA SOURCES</text><text fill="#c9a84c" font-family="Arial, sans-serif" font-size="12px" font-weight="bold" text-anchor="middle" x="600" y="300">THE FUNNEL: 9 inputs → 5 scores</text><text fill="#c9a84c" font-family="Arial, sans-serif" font-size="11px" font-weight="bold" text-anchor="middle" x="600" y="610">DETERMINISTIC DOWNSTREAM</text></svg>