<?xml version="1.0" encoding="utf-8" ?>
<svg baseProfile="full" height="800px" version="1.1" width="1200px" xmlns="http://www.w3.org/2000/svg" xmlns:ev="http://www.w3.org/2001/xml-events" xmlns:xlink="http://www.w3.org/1999/xlink"><defs /><rect fill="#0a0a0f" height="800px" width="1200px" x="0" y="0" /><text fill="#c9a84c" font-family="Arial, sans-serif" font-size="24px" font-weight="bold" text-anchor="middle" x="600" y="30">System Architecture Overview</text><rect fill="#555" height="80" rx="10" ry="10" stroke="#c9a84c" stroke-width="2" width="100" x="30" y="150" /><text dominant-baseline="middle" fill="#ffffff" font-family="Arial, sans-serif" font-size="11px" font-weight="normal" text-anchor="middle" x="80.0" y="190.0">USER
(Browser)</text><line stroke="#c9a84c" stroke-width="2" x1="130" x2="180" y1="180" y2="180" /><polygon fill="#c9a84c" points="180,180 170.0,190.0 170.0,170.0" stroke="#c9a84c" /><text fill="#d0d0d0" font-family="Arial, sans-serif" font-size="11px" text-anchor="middle" x="155.0" y="175.0">Community</text><line stroke="#c9a84c" stroke-width="2" x1="130" x2="180" y1="210" y2="220" /><polygon fill="#c9a84c" points="180,220 168.23303189170898,227.84464540552736 172.15535459447264,208.23303189170898" stroke="#c9a84c" /><text fill="#d0d0d0" font-family="Arial, sans-serif" font-size="11px" text-anchor="middle" x="155.0" y="210.0">Region</text><rect fill="#2a2a3a" height="120" rx="12" ry="12" stroke="#c9a84c" stroke-width="2" width="160" x="180" y="100" /><text dominant-baseline="middle" fill="#ffffff" font-family="Arial, sans-serif" font-size="10px" font-weight="normal" text-anchor="middle" x="260.0" y="160.0">CORRIDOR
KNOWLEDGE BASE
49 stations
~3,200 records</text><line stroke="#d0d0d0" stroke-width="2" x1="340" x2="380" y1="160" y2="160" /><polygon fill="#d0d0d0" points="380,160 370.0,170.0 370.0,150.0" stroke="#d0d0d0" /><rect fill="#4a2c6e" height="120" rx="12" ry="12" stroke="#c9a84c" stroke-width="2" width="160" x="380" y="100" /><text dominant-baseline="middle" fill="#ffffff" font-family="Arial, sans-serif" font-size="10px" font-weight="normal" text-anchor="middle" x="460.0" y="160.0">COMMUNITY
RESEARCH ENGINE
AI-powered
(Phase 2)</text><line stroke="#d0d0d0" stroke-width="2" x1="540" x2="580" y1="160" y2="160" /><polygon fill="#d0d0d0" points="580,160 570.0,170.0 570.0,150.0" stroke="#d0d0d0" /><rect fill="#2a5a5a" height="120" rx="12" ry="12" stroke="#c9a84c" stroke-width="2" width="160" x="580" y="100" /><text dominant-baseline="middle" fill="#ffffff" font-family="Arial, sans-serif" font-size="10px" font-weight="normal" text-anchor="middle" x="660.0" y="160.0">SCORING
ENGINE
5 criteria
Weighted sum</text><line stroke="#d0d0d0" stroke-width="2" x1="740" x2="780" y1="160" y2="160" /><polygon fill="#d0d0d0" points="780,160 770.0,170.0 770.0,150.0" stroke="#d0d0d0" /><rect fill="#1a3a2a" height="120" rx="12" ry="12" stroke="#c9a84c" stroke-width="2" width="160" x="780" y="100" /><text dominant-baseline="middle" fill="#ffffff" font-family="Arial, sans-serif" font-size="10px" font-weight="normal" text-anchor="middle" x="860.0" y="160.0">PROPOSITION
GENERATOR
Lock assignment
Chamber config</text><line stroke="#d0d0d0" stroke-width="2" x1="940" x2="980" y1="160" y2="160" /><polygon fill="#d0d0d0" points="980,160 970.0,170.0 970.0,150.0" stroke="#d0d0d0" /><rect fill="#5a4a3a" height="120" rx="12" ry="12" stroke="#c9a84c" stroke-width="2" width="160" x="980" y="100" /><text dominant-baseline="middle" fill="#ffffff" font-family="Arial, sans-serif" font-size="10px" font-weight="normal" text-anchor="middle" x="1060.0" y="160.0">OUTPUT
PIPELINE
3 renderers
1 JSON</text><text fill="#c9a84c" font-family="Arial, sans-serif" font-size="10px" font-weight="bold" text-anchor="middle" transform="rotate(-90 530 45)" x="530" y="45">AI / DETERMINISTIC BOUNDARY</text><rect fill="#3a2a1a" height="100" rx="12" ry="12" stroke="#c9a84c" stroke-width="2" width="500" x="350" y="300" /><text dominant-baseline="middle" fill="#d0d0d0" font-family="Arial, sans-serif" font-size="11px" font-weight="normal" text-anchor="middle" x="600.0" y="350.0">INTERFACE
Two tabs: Analysis + Outputs</text><line stroke="#d0d0d0" stroke-width="2" x1="600" x2="600" y1="220" y2="300" /><polygon fill="#d0d0d0" points="600,300 590.0,290.0 610.0,290.0" stroke="#d0d0d0" /><text fill="#d0d0d0" font-family="Arial, sans-serif" font-size="8px" text-anchor="middle" x="250" y="250">Modal diversity</text><text fill="#d0d0d0" font-family="Arial, sans-serif" font-size="8px" text-anchor="middle" x="310" y="250">Break points</text><text fill="#d0d0d0" font-family="Arial, sans-serif" font-size="8px" text-anchor="middle" x="370" y="250">Temporal freq</text><text fill="#d0d0d0" font-family="Arial, sans-serif" font-size="8px" text-anchor="middle" x="430" y="250">Ridership</text></svg>